<?xml version="1.0" encoding="UTF-8"?>
<svg id="Layer_1" xmlns="http://www.w3.org/2000/svg" xmlns:xlink="http://www.w3.org/1999/xlink" version="1.1" viewBox="0 0 77 77">
  <!-- Generator: Adobe Illustrator 30.2.1, SVG Export Plug-In . SVG Version: 2.1.1 Build 1)  -->
  <defs>
    <style>
      .st0 {
        fill: #e0d8c9;
      }

      .st1 {
        fill: #e7e6b7;
      }

      .st2, .st3 {
        fill: #fefff9;
      }

      .st4 {
        fill: #d9d9d9;
      }

      .st4, .st5, .st6 {
        stroke: #331b11;
      }

      .st7 {
        fill: #dbd5c5;
      }

      .st8 {
        fill: url(#linear-gradient);
      }

      .st9 {
        stroke: #321b13;
      }

      .st9, .st5 {
        fill: none;
      }

      .st10 {
        fill: #fcfce2;
      }

      .st11 {
        stroke: #321c11;
        stroke-linecap: round;
      }

      .st11, .st12 {
        fill: #321b13;
      }

      .st13 {
        fill: #ded5c6;
      }

      .st14, .st6 {
        fill: #fff;
      }

      .st3 {
        stroke: #2d1910;
      }

      .st15 {
        fill: #ddd5c6;
      }

      .st16 {
        fill: #301b15;
      }
    </style>
    <linearGradient id="linear-gradient" x1="41.46" y1="92.73" x2="35.96" y2="9.73" gradientTransform="translate(0 86.6) scale(1 -1)" gradientUnits="userSpaceOnUse">
      <stop offset="0" stop-color="#ebceae" stop-opacity=".07"/>
      <stop offset="1" stop-color="#f50"/>
    </linearGradient>
  </defs>
  <g>
    <path class="st14" d="M38.5,0h0c21.26,0,38.5,17.24,38.5,38.5h0c0,21.26-17.24,38.5-38.5,38.5h0C17.24,77,0,59.76,0,38.5h0C0,17.24,17.24,0,38.5,0Z" shape-rendering="crispEdges"/>
    <path class="st8" d="M38.5,0h0c21.26,0,38.5,17.24,38.5,38.5h0c0,21.26-17.24,38.5-38.5,38.5h0C17.24,77,0,59.76,0,38.5h0C0,17.24,17.24,0,38.5,0Z" shape-rendering="crispEdges"/>
  </g>
  <path class="st10" d="M50.63,20.9h0c7.02,0,12.71,5.69,12.71,12.71h0c0,7.02-5.69,12.71-12.71,12.71h0c-7.02,0-12.71-5.69-12.71-12.71h0c0-7.02,5.69-12.71,12.71-12.71Z"/>
  <path class="st9" d="M50.63,20.9h0c7.02,0,12.71,5.69,12.71,12.71h0c0,7.02-5.69,12.71-12.71,12.71h0c-7.02,0-12.71-5.69-12.71-12.71h0c0-7.02,5.69-12.71,12.71-12.71Z"/>
  <path class="st12" d="M47.26,23h0c3.31,0,6,2.69,6,6h0c0,3.31-2.69,6-6,6h0c-3.31,0-6-2.69-6-6h0c0-3.31,2.69-6,6-6Z"/>
  <path class="st1" d="M62.74,35.19c-2.7,5.73-15.78,5.79-22.43,4.93,1.42,2.52,6.28,6.75,11.94,5.69,7.47-1.4,10.09-6.7,10.5-10.61Z"/>
  <path class="st10" d="M24.21,20.9h0c7.02,0,12.71,5.69,12.71,12.71h0c0,7.02-5.69,12.71-12.71,12.71h0c-7.02,0-12.71-5.69-12.71-12.71h0c0-7.02,5.69-12.71,12.71-12.71Z"/>
  <path class="st9" d="M24.21,20.9h0c7.02,0,12.71,5.69,12.71,12.71h0c0,7.02-5.69,12.71-12.71,12.71h0c-7.02,0-12.71-5.69-12.71-12.71h0c0-7.02,5.69-12.71,12.71-12.71Z"/>
  <path class="st12" d="M21.08,23h0c3.31,0,6,2.69,6,6h0c0,3.31-2.69,6-6,6h0c-3.31,0-6-2.69-6-6h0c0-3.31,2.69-6,6-6Z"/>
  <path class="st1" d="M35.18,38.97c-6.4,5.01-17.48,1.09-22.25-.69,1.53,3.63,5.39,7.85,11.79,7.53,6.22-.3,9.59-4.8,10.46-6.84Z"/>
  <path class="st11" d="M31,22.5l2,1.5,3.04,4.16,1.46,4.34,2.05-5.85,1.45-2.15,2.1-1.54,4.19-1.85,5.52-.4,4.19,1.8,2.5,1.5-.07-1.32,2.43-.22-3.09-1.76,1.32-1.32-2.43-.44v-.88l-2.87.44v-1.97l-1.99.88v-1.54l-1.99,1.54-.44-1.54-2.65,1.76-.44-2.63-2.87,2.41v-1.54l-1.99,1.76-.66-1.97-1.77,1.32-.88-1.32-2.21,1.76-.88-1.54-1.77,1.54-1.1-1.54-1.77,1.1-.44-1.32-1.99,1.76-.44-1.54-2.43,1.54-.22-1.76-1.32,2.41-1.1-1.75-1.1,1.75-.66-1.54-1.32,1.97-1.99-1.1v1.97h-2.21l.88,1.97-2.65.44,1.77.66.88.5,1.94-.96,3.5-1.5,4,.5,1.79.11,2.71,1.39Z"/>
  <path class="st4" d="M30.65,64.6l1.63-6.51c-.1.02.68-.31,1.71-.47l1.21,5.98-4.55,1Z"/>
  <path class="st3" d="M54,60.77l-1.09-5.16c.57-.09,3.36.12,4.72.13l.94,4.14-4.57.9Z"/>
  <path class="st2" d="M37.49,64.2l-1.46-6.26c-.52-1.38,5.89-2.56,6.08-1.23l.88,5.82-1.32-1.16-.2,2.12-3.97.7Z"/>
  <path class="st2" d="M45.81,63.99l-1.56-7.6c-.7-1.15,6.46-2.22,6.59-.68l1.38,7.11-6.41,1.17Z"/>
  <path class="st5" d="M37.49,64.2l-1.46-6.26c-.52-1.38,5.89-2.56,6.08-1.23l.88,5.82-1.32-1.16-.2,2.12-3.97.7Z"/>
  <path class="st5" d="M45.81,63.99l-1.56-7.6c-.7-1.15,6.46-2.22,6.59-.68l1.38,7.11-6.41,1.17Z"/>
  <path class="st13" d="M42.26,61.18l-.4-4.75-.92.14.49,3.27-1.02.15c.23,2.64-1.57,2.99-2.7,2.91l.11.72,3.17-.48.32-2.76.96.8Z"/>
  <path class="st0" d="M33.37,58.34c.98,5.1,1.13,4.73-2.01,5.42-.19.13-.09.12-.17.24l3.66-.67-.99-5.17-.49.18Z"/>
  <path class="st15" d="M46.51,60.91l-.98-4.9-.79.12,1.51,7.27c2.08-.39,5.4-.93,5.38-1.02l-.08-.51c-.83.12-2.34.35-3.38.51-1.04.16-1.55-.91-1.67-1.47Z"/>
  <path class="st16" d="M24.94,60.65c5.98-3.51,24.24-9.61,38.4-3.8-3.66-1.4-18.66-2.18-38.4,3.8Z"/>
  <path class="st6" d="M30.65,64.6l1.63-6.51c-.1.02.68-.31,1.71-.47l1.21,5.98-4.55,1Z"/>
  <path class="st7" d="M54.25,60.32l-.98-4.45h.63c.52,4.03,2.96,3.71,4.11,3.05l.21.7-3.97.7Z"/>
</svg>